<svg width="1500" height="333" viewBox="0 0 1500 333" fill="none" xmlns="http://www.w3.org/2000/svg">
<rect x="925.952" y="242.775" width="134.205" height="90.9129" fill="#0072C8"/>
<path d="M336.1 334.445L335.256 245.934L424.611 335.29L336.1 334.445Z" fill="#FFCC19"/>
<path d="M788.856 243.898L695.226 244.424L789.381 150.268L788.856 243.898Z" fill="#545454"/>
<path d="M1331.65 152.073L1424.36 151.51L1331.09 244.78L1331.65 152.073Z" fill="#545454"/>
<path d="M1383.76 65.5L1412.82 97.4277H1354.71L1383.76 65.5Z" fill="#FFCC19"/>
<path d="M1383.76 95.082L1412.82 122.139H1354.71L1383.76 95.082Z" fill="#FFCC19"/>
<path d="M1383.76 118.893L1412.82 151.362H1354.71L1383.76 118.893Z" fill="#FFCC19"/>
<path d="M787.324 151.562L880.954 151.036L786.798 245.192L787.324 151.562Z" fill="#FFCC19"/>
<path d="M879.661 243.898L786.031 244.424L880.187 150.268L879.661 243.898Z" fill="#0072C8"/>
<path d="M-0.836104 333.811L-1.47647 247.565L85.4097 334.451L-0.836104 333.811Z" fill="#F42C1D"/>
<path d="M515.04 242.774C503.149 242.774 491.374 245.116 480.388 249.667C469.401 254.218 459.419 260.888 451.01 269.296C442.602 277.705 435.932 287.687 431.381 298.674C426.83 309.66 424.488 321.435 424.488 333.326L515.04 333.326L515.04 242.774Z" fill="#FFCC19"/>
<path d="M1059.8 242.774C1047.81 242.774 1035.94 245.116 1024.87 249.667C1013.79 254.218 1003.73 260.888 995.256 269.296C986.781 277.705 980.058 287.687 975.471 298.674C970.884 309.66 968.523 321.435 968.523 333.326L1059.8 333.326L1059.8 242.774Z" fill="#FFCC19"/>
<path d="M175.922 246.058C164.03 246.058 152.255 248.354 141.269 252.814C130.283 257.274 120.3 263.811 111.892 272.052C103.483 280.293 96.8132 290.076 92.2625 300.844C87.7118 311.611 85.3696 323.152 85.3696 334.806L175.922 334.806L175.922 246.058Z" fill="#0072C8"/>
<rect x="247.714" y="246.059" width="88.7483" height="88.7483" fill="#FFCC19"/>
<rect x="1060.16" y="151.861" width="90.9129" height="90.9129" fill="#0072C8"/>
<rect x="786.697" y="242.775" width="90.9129" height="90.9129" fill="#FFCC19"/>
<rect x="1332.9" y="242.775" width="90.1913" height="90.9129" fill="#FFCC19"/>
<rect x="1241.98" y="151.861" width="90.9129" height="90.9129" fill="#FFCC19"/>
<rect x="1151.07" y="242.775" width="90.9129" height="90.9129" fill="#545454"/>
<path d="M1332.9 91.2528L1290.09 55.1763H1204.46L1241.16 91.2528H1332.9Z" fill="#545454"/>
<rect x="1151.07" y="151.861" width="90.9129" height="90.9129" fill="#F42C1D"/>
<rect x="696.505" y="242.775" width="90.1913" height="90.9129" fill="#0072C8"/>
<rect x="1241.98" y="242.775" width="90.9129" height="90.9129" fill="#0072C8"/>
<path d="M696.505 323.947C696.505 299.041 716.695 278.851 741.601 278.851C766.507 278.851 786.697 299.041 786.697 323.947V333.687H696.505V323.947Z" fill="#545454"/>
<path d="M1241.98 324.308C1241.98 299.203 1262.33 278.851 1287.44 278.851C1312.54 278.851 1332.9 299.203 1332.9 324.308V333.687H1241.98V324.308Z" fill="white"/>
<path d="M1425.97 242.775C1451.08 242.775 1471.43 263.126 1471.43 288.231C1471.43 313.336 1451.08 333.688 1425.97 333.688L1423.09 333.688L1423.09 242.775L1425.97 242.775Z" fill="#545454"/>
<path d="M1514 333.687C1490.49 333.687 1471.43 314.627 1471.43 291.116L1471.43 285.344C1471.43 261.833 1490.49 242.774 1514 242.774L1514 333.687Z" fill="#FFCC19"/>
<path d="M1241.98 161.241C1241.98 186.346 1221.63 206.698 1196.53 206.698C1171.42 206.698 1151.07 186.346 1151.07 161.241L1151.07 151.861L1241.98 151.861L1241.98 161.241Z" fill="#FFCC19"/>
<rect x="84.6475" y="155.146" width="90.9129" height="90.9129" fill="#FFCC19"/>
<rect x="247.714" y="156.589" width="46.178" height="44.7349" fill="#FFCC19"/>
<rect x="877.61" y="200.203" width="182.547" height="42.5703" fill="#FFCC19"/>
<rect x="877.61" y="84.7578" width="273.46" height="12.266" fill="#FFCC19"/>
<rect x="877.61" y="110.013" width="273.46" height="10.823" fill="#FFCC19"/>
<rect x="877.61" y="133.103" width="273.46" height="12.9876" fill="#FFCC19"/>
<rect x="877.61" y="151.861" width="182.547" height="48.3426" fill="#545454"/>
<rect x="199.371" y="156.589" width="48.3426" height="89.4698" fill="#545454"/>
<rect x="877.61" y="242.775" width="48.3426" height="90.9129" fill="#545454"/>
<rect x="175.561" y="246.059" width="48.3426" height="88.7483" fill="#545454"/>
<rect x="247.714" y="201.323" width="46.178" height="44.7349" fill="#F42C1D"/>
<rect x="514.68" y="242.775" width="90.9129" height="48.3426" fill="#F42C1D"/>
<rect x="1060.16" y="242.775" width="90.9129" height="48.3426" fill="#F42C1D"/>
<rect x="1241.98" y="91.2524" width="90.9129" height="60.6086" fill="#F42C1D"/>
<rect x="1423.09" y="151.861" width="90.9129" height="48.3426" fill="#F42C1D"/>
<rect x="514.68" y="291.117" width="90.9129" height="42.5703" fill="#0072C8"/>
<rect x="1060.16" y="291.117" width="90.9129" height="42.5703" fill="#0072C8"/>
<rect x="1423.09" y="200.203" width="90.9129" height="42.5703" fill="#0072C8"/>
<circle cx="292.088" cy="288.591" r="15.5129" fill="white"/>
<ellipse cx="1105.25" cy="196.596" rx="14.7914" ry="15.1521" fill="white"/>
<circle cx="1444.37" cy="21.625" r="21.2852" fill="#F42C1D"/>
<path d="M786.697 242.774C786.697 254.713 789.049 266.534 793.618 277.565C798.186 288.595 804.883 298.617 813.325 307.059C821.767 315.501 831.789 322.197 842.819 326.766C853.849 331.335 865.671 333.687 877.61 333.687L877.61 242.774L786.697 242.774Z" fill="#F42C1D"/>
<path d="M1332.9 242.774C1332.9 254.713 1335.24 266.534 1339.79 277.565C1344.34 288.595 1351.01 298.617 1359.42 307.059C1367.83 315.501 1377.81 322.197 1388.79 326.766C1399.78 331.335 1411.56 333.687 1423.45 333.687L1423.45 242.774L1332.9 242.774Z" fill="#F42C1D"/>
<rect x="1278.06" y="110.013" width="23.089" height="41.8488" fill="#545454"/>
<path d="M1168.39 91.4332L1205.19 55.1763L1241.98 91.4332V151.861H1168.39V91.4332Z" fill="#0072C8"/>
<path d="M1193.64 104.524C1193.64 100.382 1197 97.0244 1201.14 97.0244H1209.23C1213.37 97.0244 1216.73 100.382 1216.73 104.524V127.329H1193.64V104.524Z" fill="#545454"/>
<path d="M605.593 252.154C605.593 227.049 625.944 206.698 651.049 206.698C676.154 206.698 696.506 227.049 696.506 252.154V333.687H605.593V252.154Z" fill="#FFCC19"/>
</svg>
