<svg width="712" height="410" viewBox="0 0 712 410" fill="none" xmlns="http://www.w3.org/2000/svg">
<rect y="62" width="58.895" height="229.917" fill="#545454"/>
<rect x="178.95" y="139.31" width="58.895" height="92.8729" fill="#545454"/>
<path d="M118.923 59.4613C118.923 47.701 115.435 36.2047 108.902 26.4264C102.368 16.648 93.0813 9.02671 82.2162 4.52622C71.3511 0.0257369 59.3954 -1.1518 47.861 1.14253C36.3266 3.43686 25.7316 9.1 17.4158 17.4158C9.1 25.7316 3.43686 36.3266 1.14253 47.861C-1.1518 59.3954 0.025737 71.3511 4.52622 82.2162C9.02671 93.0813 16.648 102.368 26.4264 108.902C36.2047 115.435 47.701 118.923 59.4613 118.923V59.4613H118.923Z" fill="#545454"/>
<path d="M237.461 173C225.701 173 214.205 176.487 204.426 183.021C194.648 189.555 187.027 198.841 182.526 209.706C178.026 220.572 176.848 232.527 179.143 244.062C181.437 255.596 187.1 266.191 195.416 274.507C203.732 282.823 214.327 288.486 225.861 290.78C237.395 293.074 249.351 291.897 260.216 287.396C271.081 282.896 280.368 275.275 286.902 265.496C293.435 255.718 296.923 244.222 296.923 232.461L237.461 232.461L237.461 173Z" fill="#545454"/>
<path d="M238.979 351.105C238.979 362.754 242.433 374.14 248.904 383.826C255.376 393.511 264.574 401.06 275.335 405.517C286.097 409.975 297.939 411.141 309.363 408.869C320.788 406.596 331.282 400.987 339.519 392.75C347.755 384.514 353.364 374.02 355.637 362.595C357.909 351.171 356.743 339.329 352.285 328.567C347.828 317.805 340.279 308.607 330.594 302.136C320.909 295.664 309.522 292.21 297.874 292.21L297.874 351.105L238.979 351.105Z" fill="#545454"/>
<path d="M120.462 118.923C132.222 118.923 143.718 115.435 153.496 108.902C163.275 102.368 170.896 93.0813 175.397 82.2162C179.897 71.3511 181.075 59.3954 178.78 47.861C176.486 36.3266 170.823 25.7316 162.507 17.4158C154.191 9.1 143.596 3.43686 132.062 1.14253C120.527 -1.1518 108.572 0.0257339 97.7067 4.52622C86.8415 9.02671 77.5549 16.648 71.0213 26.4264C64.4876 36.2047 61.0002 47.701 61.0002 59.4613L120.462 59.4613L120.462 118.923Z" fill="#545454"/>
<path d="M651.809 258.232C663.57 258.232 675.066 254.745 684.844 248.211C694.622 241.677 702.244 232.391 706.744 221.526C711.245 210.661 712.422 198.705 710.128 187.171C707.834 175.636 702.171 165.041 693.855 156.725C685.539 148.41 674.944 142.746 663.41 140.452C651.875 138.158 639.919 139.335 629.054 143.836C618.189 148.336 608.903 155.958 602.369 165.736C595.835 175.514 592.348 187.011 592.348 198.771L651.809 198.771L651.809 258.232Z" fill="#545454"/>
<rect x="356.769" y="2.26538" width="58.895" height="58.895" fill="#545454"/>
<rect x="415.663" y="2.26538" width="58.895" height="289.945" fill="#545454"/>
<rect x="1.13232" y="139.31" width="118.923" height="58.895" fill="#545454"/>
<rect x="178.95" y="351.105" width="120.055" height="58.895" fill="#545454"/>
<path d="M356.769 139.31L356.769 356.768L296.741 356.768L296.741 139.31L356.769 139.31Z" fill="#545454"/>
<path d="M592.348 139.31L592.348 410L533.453 410L533.453 139.31L592.348 139.31Z" fill="#545454"/>
<rect x="61" width="58.895" height="58.895" fill="#545454"/>
<rect x="533.453" y="139.31" width="117.79" height="58.895" fill="#545454"/>
<rect x="237.846" y="232.183" width="58.895" height="60.0276" fill="#545454"/>
<rect x="121" y="60" width="58.895" height="58.895" fill="#545454"/>
<rect x="533.453" width="58.895" height="58.895" fill="#545454"/>
<rect x="2.26514" y="351.105" width="58.895" height="58.895" fill="#545454"/>
</svg>
