<svg width="696" height="422" viewBox="0 0 696 422" fill="none" xmlns="http://www.w3.org/2000/svg">
<rect y="63.8147" width="57.6306" height="236.647" fill="#F42C1D"/>
<rect x="175.108" y="143.387" width="57.6306" height="95.5912" fill="#F42C1D"/>
<path d="M116.369 61.2017C116.369 49.0971 112.957 37.2644 106.564 27.1999C100.17 17.1353 91.0829 9.29091 80.4511 4.6587C69.8192 0.0264902 58.1202 -1.18551 46.8335 1.17597C35.5467 3.53745 25.1792 9.36635 17.0419 17.9256C8.90463 26.4848 3.36307 37.3899 1.118 49.2618C-1.12707 61.1338 0.0251844 73.4394 4.42905 84.6226C8.83291 95.8057 16.2906 105.364 25.859 112.089C35.4275 118.814 46.6769 122.403 58.1847 122.403V61.2017H116.369Z" fill="#FFCC19"/>
<path d="M232.363 178.063C220.856 178.063 209.606 181.653 200.038 188.378C190.469 195.103 183.012 204.661 178.608 215.844C174.204 227.027 173.052 239.333 175.297 251.205C177.542 263.077 183.083 273.982 191.221 282.541C199.358 291.1 209.725 296.929 221.012 299.291C232.299 301.652 243.998 300.44 254.63 295.808C265.262 291.176 274.349 283.332 280.742 273.267C287.136 263.202 290.548 251.37 290.548 239.265L232.363 239.265L232.363 178.063Z" fill="#FFCC19"/>
<path d="M233.848 361.382C233.848 373.371 237.228 385.091 243.56 395.06C249.893 405.028 258.893 412.798 269.424 417.386C279.955 421.974 291.542 423.175 302.721 420.836C313.901 418.497 324.169 412.723 332.229 404.246C340.289 395.768 345.778 384.967 348.002 373.208C350.225 361.449 349.084 349.26 344.722 338.184C340.36 327.107 332.973 317.64 323.496 310.979C314.019 304.318 302.877 300.763 291.478 300.763L291.478 361.382L233.848 361.382Z" fill="#0072C8"/>
<path d="M117.875 122.403C129.383 122.403 140.633 118.814 150.201 112.089C159.769 105.364 167.227 95.8057 171.631 84.6226C176.035 73.4394 177.187 61.1338 174.942 49.2618C172.697 37.3899 167.155 26.4848 159.018 17.9256C150.881 9.36635 140.513 3.53745 129.227 1.17597C117.94 -1.18551 106.241 0.0264871 95.609 4.6587C84.9771 9.29091 75.8899 17.1353 69.4965 27.1999C63.1031 37.2644 59.6906 49.0971 59.6906 61.2017L117.875 61.2017L117.875 122.403Z" fill="#FFCC19"/>
<path d="M637.815 265.79C649.323 265.79 660.573 262.201 670.141 255.476C679.709 248.751 687.167 239.193 691.571 228.01C695.975 216.826 697.127 204.521 694.882 192.649C692.637 180.777 687.095 169.872 678.958 161.313C670.821 152.753 660.453 146.924 649.167 144.563C637.88 142.201 626.181 143.413 615.549 148.046C604.917 152.678 595.83 160.522 589.436 170.587C583.043 180.651 579.631 192.484 579.631 204.589L637.815 204.589L637.815 265.79Z" fill="#FFCC19"/>
<rect x="349.109" y="2.33179" width="57.6306" height="60.6188" fill="#F42C1D"/>
<rect x="406.739" y="2.33179" width="57.6306" height="298.431" fill="#F42C1D"/>
<rect x="1.10791" y="143.387" width="116.369" height="60.6188" fill="#0072C8"/>
<rect x="175.108" y="361.381" width="117.478" height="60.6188" fill="#0072C8"/>
<path d="M349.109 143.387L349.109 367.21L290.37 367.21L290.37 143.387L349.109 143.387Z" fill="#0072C8"/>
<path d="M579.63 143.387L579.63 422L522 422L522 143.387L579.63 143.387Z" fill="#0072C8"/>
<rect x="59.6904" width="57.6306" height="60.6188" fill="#FFCC19"/>
<rect x="522" y="143.387" width="115.261" height="60.6188" fill="#FFCC19"/>
<rect x="232.739" y="238.978" width="57.6306" height="61.7846" fill="#FFCC19"/>
<rect x="118.402" y="61.7561" width="57.6306" height="60.6188" fill="#FFCC19"/>
<rect x="522" width="57.6306" height="60.6188" fill="#FFCC19"/>
<rect x="2.21631" y="361.381" width="57.6306" height="60.6188" fill="#FFCC19"/>
</svg>
